# Blender v2.79 (sub 0) OBJ File: 'fuji.blend'
# www.blender.org
mtllib fuji.mtl
o obj1
v 0.000000 -0.000000 1.483100
v 0.460500 -0.000000 1.410100
v 0.876000 -0.000000 1.198400
v 1.205700 -0.000000 0.868700
v 1.417400 -0.000000 0.453300
v 1.490300 0.000000 -0.007300
v 1.417400 0.000000 -0.467800
v 1.205700 0.000000 -0.883300
v 0.876000 0.000000 -1.213000
v 0.460500 0.000000 -1.424700
v 0.000000 0.000000 -1.497600
v -0.460500 0.000000 -1.424700
v -0.876000 0.000000 -1.213000
v -1.205700 0.000000 -0.883300
v -1.417400 0.000000 -0.467800
v -1.490300 0.000000 -0.007300
v -1.417400 -0.000000 0.453300
v -1.205700 -0.000000 0.868700
v -0.876000 -0.000000 1.198400
v -0.460500 -0.000000 1.410100
v 0.000000 1.577500 -0.007300
v 0.000000 0.000000 -0.007300
v 0.000000 1.577800 0.203900
v 0.065200 1.577800 0.193500
v 0.124100 1.577800 0.163500
v 0.170800 1.577800 0.116800
v 0.200800 1.577800 0.058000
v 0.211100 1.577800 -0.007300
v 0.200800 1.577800 -0.072500
v 0.170800 1.577800 -0.131400
v 0.124100 1.577800 -0.178100
v 0.065200 1.577800 -0.208100
v 0.000000 1.577800 -0.218400
v -0.065200 1.577800 -0.208100
v -0.124100 1.577800 -0.178100
v -0.170800 1.577800 -0.131400
v -0.200800 1.577800 -0.072500
v -0.211100 1.577800 -0.007300
v -0.200800 1.577800 0.058000
v -0.170800 1.577800 0.116800
v -0.124100 1.577800 0.163500
v -0.065200 1.577800 0.193500
v 0.000000 1.027700 0.478900
v 0.150200 1.027700 0.455100
v 0.285700 1.027700 0.386000
v 0.393300 1.027700 0.278500
v 0.462400 1.027700 0.143000
v 0.486100 1.027700 -0.007300
v 0.462400 1.027700 -0.157500
v 0.393300 1.027700 -0.293000
v 0.285700 1.027700 -0.400600
v 0.150200 1.027700 -0.469600
v 0.000000 1.027700 -0.493400
v -0.150200 1.027700 -0.469600
v -0.285700 1.027700 -0.400600
v -0.393300 1.027700 -0.293000
v -0.462400 1.027700 -0.157500
v -0.486100 1.027700 -0.007300
v -0.462400 1.027700 0.143000
v -0.393300 1.027700 0.278500
v -0.285700 1.027700 0.386000
v -0.150200 1.027700 0.455100
v 0.000000 0.521100 0.918200
v 0.286000 0.521100 0.872900
v 0.544000 0.521100 0.741500
v 0.748800 0.521100 0.536700
v 0.880200 0.521100 0.278700
v 0.925500 0.521100 -0.007300
v 0.880200 0.521100 -0.293300
v 0.748800 0.521100 -0.551300
v 0.544000 0.521100 -0.756000
v 0.286000 0.521100 -0.887500
v 0.000000 0.521100 -0.932800
v -0.286000 0.521100 -0.887500
v -0.544000 0.521100 -0.756000
v -0.748800 0.521100 -0.551300
v -0.880200 0.521100 -0.293300
v -0.925500 0.521100 -0.007300
v -0.880200 0.521100 0.278700
v -0.748800 0.521100 0.536700
v -0.544000 0.521100 0.741500
v -0.286000 0.521100 0.872900
vt 0.000000 0.000000
vt 0.000000 0.000000
vt 0.000000 0.000000
vt 0.000000 0.000000
vt 0.000000 0.000000
vt 0.000000 0.000000
vt 0.000000 0.000000
vt 0.000000 0.000000
vt 0.000000 0.000000
vt 0.000000 0.000000
vt 0.000000 0.000000
vt 0.000000 0.000000
vt 0.000000 0.000000
vt 0.000000 0.000000
vt 0.000000 0.000000
vt 0.000000 0.000000
vt 0.000000 0.000000
vt 0.000000 0.000000
vt 0.000000 0.000000
vt 0.000000 0.000000
vt 0.000000 0.000000
vt 0.006510 0.739450
vt 0.000000 1.000000
vt 0.050000 1.000000
vt 0.043490 0.739450
vt 0.037150 0.486140
vt 0.012850 0.486140
vt 0.050000 0.739450
vt 0.100000 1.000000
vt 0.086970 0.739450
vt 0.074310 0.486140
vt 0.050000 0.486140
vt 0.093490 0.739450
vt 0.150000 1.000000
vt 0.130460 0.739450
vt 0.111460 0.486140
vt 0.087150 0.486140
vt 0.136970 0.739450
vt 0.200000 1.000000
vt 0.173940 0.739450
vt 0.148610 0.486140
vt 0.124310 0.486140
vt 0.180460 0.739450
vt 0.250000 1.000000
vt 0.217430 0.739450
vt 0.185770 0.486140
vt 0.161460 0.486140
vt 0.223950 0.739450
vt 0.300000 1.000000
vt 0.260920 0.739450
vt 0.222920 0.486140
vt 0.198610 0.486140
vt 0.267430 0.739450
vt 0.350000 1.000000
vt 0.304400 0.739450
vt 0.260080 0.486140
vt 0.235770 0.486140
vt 0.310920 0.739450
vt 0.400000 1.000000
vt 0.347890 0.739450
vt 0.297230 0.486140
vt 0.272920 0.486140
vt 0.354400 0.739450
vt 0.450000 1.000000
vt 0.391380 0.739450
vt 0.334380 0.486140
vt 0.310080 0.486140
vt 0.397890 0.739450
vt 0.500000 1.000000
vt 0.434860 0.739450
vt 0.371540 0.486140
vt 0.347230 0.486140
vt 0.441380 0.739450
vt 0.550000 1.000000
vt 0.478350 0.739450
vt 0.408690 0.486140
vt 0.384380 0.486140
vt 0.484860 0.739450
vt 0.600000 1.000000
vt 0.521840 0.739450
vt 0.445840 0.486140
vt 0.421540 0.486140
vt 0.528350 0.739450
vt 0.650000 1.000000
vt 0.565320 0.739450
vt 0.483000 0.486140
vt 0.458690 0.486140
vt 0.571840 0.739450
vt 0.700000 1.000000
vt 0.608810 0.739450
vt 0.520150 0.486140
vt 0.495840 0.486140
vt 0.615320 0.739450
vt 0.750000 1.000000
vt 0.652290 0.739450
vt 0.557300 0.486140
vt 0.533000 0.486140
vt 0.658810 0.739450
vt 0.800000 1.000000
vt 0.695780 0.739450
vt 0.594460 0.486140
vt 0.570150 0.486140
vt 0.702300 0.739450
vt 0.850000 1.000000
vt 0.739270 0.739450
vt 0.631610 0.486140
vt 0.607300 0.486140
vt 0.745780 0.739450
vt 0.900000 1.000000
vt 0.782750 0.739450
vt 0.668770 0.486140
vt 0.644460 0.486140
vt 0.789270 0.739450
vt 0.950000 1.000000
vt 0.826240 0.739450
vt 0.705920 0.486140
vt 0.681610 0.486140
vt 0.832750 0.739450
vt 1.000000 1.000000
vt 0.869730 0.739450
vt 0.743070 0.486140
vt 0.718770 0.486140
vt 0.030280 0.211120
vt 0.025000 0.000000
vt 0.019720 0.211120
vt 0.060560 0.211120
vt 0.050000 0.000000
vt 0.050000 0.211120
vt 0.090830 0.211120
vt 0.075000 0.000000
vt 0.080280 0.211120
vt 0.121110 0.211120
vt 0.100000 0.000000
vt 0.110560 0.211120
vt 0.151390 0.211120
vt 0.125000 0.000000
vt 0.140830 0.211120
vt 0.181670 0.211120
vt 0.150000 0.000000
vt 0.171110 0.211120
vt 0.211950 0.211120
vt 0.175000 0.000000
vt 0.201390 0.211120
vt 0.242230 0.211120
vt 0.200000 0.000000
vt 0.231670 0.211120
vt 0.272500 0.211120
vt 0.225000 0.000000
vt 0.261950 0.211120
vt 0.302780 0.211120
vt 0.250000 0.000000
vt 0.292230 0.211120
vt 0.333060 0.211120
vt 0.275000 0.000000
vt 0.322500 0.211120
vt 0.363340 0.211120
vt 0.300000 0.000000
vt 0.352780 0.211120
vt 0.393620 0.211120
vt 0.325000 0.000000
vt 0.383060 0.211120
vt 0.423890 0.211120
vt 0.350000 0.000000
vt 0.413340 0.211120
vt 0.454170 0.211120
vt 0.375000 0.000000
vt 0.443610 0.211120
vt 0.484450 0.211120
vt 0.400000 0.000000
vt 0.473890 0.211120
vt 0.514730 0.211120
vt 0.425000 0.000000
vt 0.504170 0.211120
vt 0.545010 0.211120
vt 0.450000 0.000000
vt 0.534450 0.211120
vt 0.575280 0.211120
vt 0.475000 0.000000
vt 0.564730 0.211120
vt 0.605560 0.211120
vt 0.500000 0.000000
vt 0.595010 0.211120
vn -0.0000 -1.0000 -0.0000
vn 0.0000 0.6989 0.7152
vn 0.0000 -0.3359 0.9419
vn 0.2911 -0.3359 0.8958
vn 0.2210 0.6989 0.6802
vn 0.2558 0.5614 0.7870
vn 0.0000 0.5614 0.8275
vn 0.5536 -0.3359 0.7620
vn 0.4203 0.6989 0.5786
vn 0.4864 0.5614 0.6695
vn 0.7620 -0.3359 0.5536
vn 0.5786 0.6989 0.4204
vn 0.6694 0.5614 0.4866
vn 0.8958 -0.3359 0.2910
vn 0.6802 0.6989 0.2209
vn 0.7870 0.5614 0.2556
vn 0.9419 -0.3359 0.0000
vn 0.7152 0.6989 0.0000
vn 0.8276 0.5613 -0.0000
vn 0.8958 -0.3359 -0.2910
vn 0.6802 0.6989 -0.2209
vn 0.7870 0.5614 -0.2556
vn 0.7620 -0.3359 -0.5536
vn 0.5785 0.6989 -0.4204
vn 0.6695 0.5614 -0.4865
vn 0.5536 -0.3359 -0.7620
vn 0.4203 0.6989 -0.5786
vn 0.4863 0.5614 -0.6695
vn 0.2910 -0.3359 -0.8958
vn 0.2210 0.6989 -0.6801
vn 0.2557 0.5614 -0.7871
vn 0.0000 -0.3359 -0.9419
vn 0.0000 0.6989 -0.7151
vn 0.0000 0.5614 -0.8275
vn -0.2910 -0.3359 -0.8958
vn -0.2210 0.6989 -0.6801
vn -0.2557 0.5614 -0.7871
vn -0.5536 -0.3359 -0.7620
vn -0.4203 0.6989 -0.5786
vn -0.4863 0.5614 -0.6695
vn -0.7620 -0.3359 -0.5536
vn -0.5785 0.6989 -0.4204
vn -0.6695 0.5614 -0.4865
vn -0.8958 -0.3359 -0.2910
vn -0.6802 0.6989 -0.2209
vn -0.7870 0.5614 -0.2556
vn -0.9419 -0.3359 0.0000
vn -0.7152 0.6989 0.0000
vn -0.8276 0.5613 -0.0000
vn -0.8958 -0.3359 0.2910
vn -0.6802 0.6989 0.2209
vn -0.7870 0.5614 0.2556
vn -0.7620 -0.3359 0.5536
vn -0.5786 0.6989 0.4204
vn -0.6694 0.5614 0.4866
vn -0.5536 -0.3359 0.7620
vn -0.4203 0.6989 0.5786
vn -0.4864 0.5614 0.6695
vn -0.2911 -0.3359 0.8958
vn -0.2210 0.6989 0.6802
vn -0.2558 0.5614 0.7870
vn -0.0002 1.0000 -0.0014
vn -0.0007 1.0000 -0.0013
vn -0.0010 1.0000 -0.0010
vn -0.0013 1.0000 -0.0007
vn -0.0014 1.0000 -0.0002
vn -0.0014 1.0000 0.0002
vn -0.0013 1.0000 0.0007
vn -0.0010 1.0000 0.0010
vn -0.0007 1.0000 0.0013
vn -0.0002 1.0000 0.0014
vn 0.0002 1.0000 0.0014
vn 0.0007 1.0000 0.0013
vn 0.0010 1.0000 0.0010
vn 0.0013 1.0000 0.0007
vn 0.0014 1.0000 0.0002
vn 0.0014 1.0000 -0.0002
vn 0.0013 1.0000 -0.0007
vn 0.0010 1.0000 -0.0010
vn 0.0007 1.0000 -0.0013
vn 0.0002 1.0000 -0.0014
vn 0.1735 0.8278 0.5335
vn 0.0000 0.8275 0.5614
vn 0.3298 0.8277 0.4541
vn 0.4538 0.8277 0.3300
vn 0.5338 0.8276 0.1734
vn 0.5611 0.8278 -0.0000
vn 0.5337 0.8277 -0.1733
vn 0.4540 0.8277 -0.3299
vn 0.3298 0.8277 -0.4541
vn 0.1733 0.8276 -0.5338
vn 0.0000 0.8277 -0.5611
vn -0.1733 0.8276 -0.5338
vn -0.3298 0.8277 -0.4541
vn -0.4540 0.8277 -0.3299
vn -0.5337 0.8277 -0.1733
vn -0.5611 0.8278 -0.0000
vn -0.5338 0.8276 0.1734
vn -0.4538 0.8277 0.3300
vn -0.3298 0.8277 0.4541
vn -0.1735 0.8278 0.5335
usemtl mat1
s off
f 2/1/1 1/2/1 22/3/1
f 3/4/1 2/1/1 22/3/1
f 4/5/1 3/4/1 22/3/1
f 5/6/1 4/5/1 22/3/1
f 6/7/1 5/6/1 22/3/1
f 7/8/1 6/7/1 22/3/1
f 8/9/1 7/8/1 22/3/1
f 9/10/1 8/9/1 22/3/1
f 10/11/1 9/10/1 22/3/1
f 11/12/1 10/11/1 22/3/1
f 12/13/1 11/12/1 22/3/1
f 13/14/1 12/13/1 22/3/1
f 14/15/1 13/14/1 22/3/1
f 15/16/1 14/15/1 22/3/1
f 16/17/1 15/16/1 22/3/1
f 17/18/1 16/17/1 22/3/1
f 18/19/1 17/18/1 22/3/1
f 19/20/1 18/19/1 22/3/1
f 20/21/1 19/20/1 22/3/1
f 1/2/1 20/21/1 22/3/1
s 1
f 63/22/2 1/23/3 2/24/4 64/25/5
f 64/25/5 44/26/6 43/27/7 63/22/2
f 64/28/5 2/24/4 3/29/8 65/30/9
f 65/30/9 45/31/10 44/32/6 64/28/5
f 65/33/9 3/29/8 4/34/11 66/35/12
f 66/35/12 46/36/13 45/37/10 65/33/9
f 66/38/12 4/34/11 5/39/14 67/40/15
f 67/40/15 47/41/16 46/42/13 66/38/12
f 67/43/15 5/39/14 6/44/17 68/45/18
f 68/45/18 48/46/19 47/47/16 67/43/15
f 68/48/18 6/44/17 7/49/20 69/50/21
f 69/50/21 49/51/22 48/52/19 68/48/18
f 69/53/21 7/49/20 8/54/23 70/55/24
f 70/55/24 50/56/25 49/57/22 69/53/21
f 70/58/24 8/54/23 9/59/26 71/60/27
f 71/60/27 51/61/28 50/62/25 70/58/24
f 71/63/27 9/59/26 10/64/29 72/65/30
f 72/65/30 52/66/31 51/67/28 71/63/27
f 72/68/30 10/64/29 11/69/32 73/70/33
f 73/70/33 53/71/34 52/72/31 72/68/30
f 73/73/33 11/69/32 12/74/35 74/75/36
f 74/75/36 54/76/37 53/77/34 73/73/33
f 74/78/36 12/74/35 13/79/38 75/80/39
f 75/80/39 55/81/40 54/82/37 74/78/36
f 75/83/39 13/79/38 14/84/41 76/85/42
f 76/85/42 56/86/43 55/87/40 75/83/39
f 76/88/42 14/84/41 15/89/44 77/90/45
f 77/90/45 57/91/46 56/92/43 76/88/42
f 77/93/45 15/89/44 16/94/47 78/95/48
f 78/95/48 58/96/49 57/97/46 77/93/45
f 78/98/48 16/94/47 17/99/50 79/100/51
f 79/100/51 59/101/52 58/102/49 78/98/48
f 79/103/51 17/99/50 18/104/53 80/105/54
f 80/105/54 60/106/55 59/107/52 79/103/51
f 80/108/54 18/104/53 19/109/56 81/110/57
f 81/110/57 61/111/58 60/112/55 80/108/54
f 81/113/57 19/109/56 20/114/59 82/115/60
f 82/115/60 62/116/61 61/117/58 81/113/57
f 82/118/60 20/114/59 1/119/3 63/120/2
f 63/120/2 43/121/7 62/122/61 82/118/60
usemtl mat2
s off
f 24/123/62 21/124/62 23/125/62
f 25/126/63 21/127/63 24/128/63
f 26/129/64 21/130/64 25/131/64
f 27/132/65 21/133/65 26/134/65
f 28/135/66 21/136/66 27/137/66
f 29/138/67 21/139/67 28/140/67
f 30/141/68 21/142/68 29/143/68
f 31/144/69 21/145/69 30/146/69
f 32/147/70 21/148/70 31/149/70
f 33/150/71 21/151/71 32/152/71
f 34/153/72 21/154/72 33/155/72
f 35/156/73 21/157/73 34/158/73
f 36/159/74 21/160/74 35/161/74
f 37/162/75 21/163/75 36/164/75
f 38/165/76 21/166/76 37/167/76
f 39/168/77 21/169/77 38/170/77
f 40/171/78 21/172/78 39/173/78
f 41/174/79 21/175/79 40/176/79
f 42/177/80 21/178/80 41/179/80
f 23/180/81 21/181/81 42/182/81
s 1
f 44/26/6 24/123/82 23/125/83 43/27/7
f 45/31/10 25/126/84 24/128/82 44/32/6
f 46/36/13 26/129/85 25/131/84 45/37/10
f 47/41/16 27/132/86 26/134/85 46/42/13
f 48/46/19 28/135/87 27/137/86 47/47/16
f 49/51/22 29/138/88 28/140/87 48/52/19
f 50/56/25 30/141/89 29/143/88 49/57/22
f 51/61/28 31/144/90 30/146/89 50/62/25
f 52/66/31 32/147/91 31/149/90 51/67/28
f 53/71/34 33/150/92 32/152/91 52/72/31
f 54/76/37 34/153/93 33/155/92 53/77/34
f 55/81/40 35/156/94 34/158/93 54/82/37
f 56/86/43 36/159/95 35/161/94 55/87/40
f 57/91/46 37/162/96 36/164/95 56/92/43
f 58/96/49 38/165/97 37/167/96 57/97/46
f 59/101/52 39/168/98 38/170/97 58/102/49
f 60/106/55 40/171/99 39/173/98 59/107/52
f 61/111/58 41/174/100 40/176/99 60/112/55
f 62/116/61 42/177/101 41/179/100 61/117/58
f 43/121/7 23/180/83 42/182/101 62/122/61
